<svg width="367" height="335" viewBox="0 0 367 335" fill="none" xmlns="http://www.w3.org/2000/svg">
<g clip-path="url(#clip0_998_2496)">
<path d="M153.948 88.7609C153.948 124.647 124.802 153.709 88.919 153.709C53.0361 153.709 23.8901 124.647 23.8901 88.7609C23.8901 52.8748 53.0361 23.8606 88.919 23.8606C124.802 23.8606 153.948 52.9226 153.948 88.7609Z" stroke="#231F20" stroke-width="47.0085" stroke-miterlimit="10"/>
<path d="M153.952 88.7588V177.615" stroke="#231F20" stroke-width="47.0085" stroke-miterlimit="10"/>
<path d="M343.108 88.7609C343.108 124.647 314.01 153.709 278.127 153.709C242.244 153.709 213.098 124.647 213.098 88.7609C213.098 52.8748 242.196 23.8606 278.127 23.8606C314.057 23.8606 343.108 52.9226 343.108 88.7609Z" stroke="#231F20" stroke-width="47.0085" stroke-miterlimit="10"/>
<path d="M343.112 88.7588V221.184" stroke="#231F20" stroke-width="47.0085" stroke-miterlimit="10"/>
<path d="M343.115 217.367C343.115 269.145 300.781 311.139 248.51 311.139C196.238 311.139 153.905 269.145 153.905 217.367" stroke="#231F20" stroke-width="47.0085" stroke-miterlimit="10"/>
</g>
<defs>
<clipPath id="clip0_998_2496">
<rect width="367" height="335" fill="white"/>
</clipPath>
</defs>
</svg>
